<?xml version="1.0" encoding="UTF-8" standalone="no"?>
<!-- Created with Inkscape (http://www.inkscape.org/) -->
<svg
   xmlns:svg="http://www.w3.org/2000/svg"
   xmlns="http://www.w3.org/2000/svg"
   version="1.0"
   width="278.02875"
   height="428.30212"
   id="svg1901">
  <defs
     id="defs1903" />
  <g
     transform="translate(-19.79046,-19.96218)"
     style="opacity:1"
     id="layer1">
    <path
       d="M 232.9769,114.9159 L 148.5817,357.22583 C 159.0222,361.28609 170.91292,363.31621 184.25389,363.3162 C 219.34585,363.31621 251.68281,349.10535 281.26487,320.68357 C 281.2646,320.68363 281.69963,320.2486 282.56995,319.37849 L 290.40043,327.20898 C 288.08002,331.55929 281.98965,338.08468 272.12931,346.78518 C 244.57738,370.56665 211.37037,382.45737 172.50817,382.45738 C 161.48735,382.45737 150.9017,381.44231 140.75121,379.41219 L 120.73998,436.83573 L 105.07902,436.83573 L 126.39533,375.93198 C 118.85476,374.19187 110.44425,371.00168 101.16378,366.36139 L 76.367249,436.83573 L 60.706284,436.83573 L 88.112972,358.96593 C 47.510439,332.28433 27.209209,290.08678 27.209221,232.37314 C 27.209209,182.78027 44.610263,143.77291 79.412437,115.35093 C 106.38401,93.309853 138.28594,82.289185 175.11833,82.288891 C 179.17842,82.289185 182.2236,82.434194 184.25389,82.723918 L 202.08999,31.390756 L 217.75096,31.390756 L 199.47983,84.028999 C 206.44007,84.899344 215.28561,86.929467 226.01647,90.119374 L 246.46273,31.390756 L 262.12369,31.390756 L 240.37235,94.034615 C 245.59244,95.775003 249.36267,96.645055 251.68305,96.644776 C 262.70348,96.645055 269.37388,91.859765 271.69428,82.288891 L 280.82984,82.288891 L 284.74508,180.16992 L 274.73947,180.16992 C 267.77879,151.16836 253.85794,129.41704 232.9769,114.9159 M 219.92609,107.95547 C 211.51538,104.18551 202.81485,101.72036 193.82448,100.56002 L 112.03945,334.60443 C 118.70975,341.27488 126.39522,346.93022 135.09587,351.57048 L 219.92609,107.95547 M 178.16352,99.689963 C 147.13148,100.27027 122.47998,112.45101 104.20896,136.23221 C 86.517803,159.43386 77.672267,191.77082 77.672329,233.24319 C 77.672267,269.20551 85.502741,298.64229 101.16378,321.55363 L 179.03357,99.689963 L 178.16352,99.689963"
       style="font-size:435.02679443px;font-style:normal;font-weight:normal;fill:#000000;fill-opacity:1;stroke:none;stroke-width:1px;stroke-linecap:butt;stroke-linejoin:miter;stroke-opacity:1;font-family:Serif"
       id="text2157" />
  </g>
</svg>
